<svg width="683" height="98" viewBox="0 0 683 98" fill="none" xmlns="http://www.w3.org/2000/svg">
<path fill-rule="evenodd" clip-rule="evenodd" d="M78.9413 75.309L71.5244 67.9537C70.5962 70.8167 68.2694 73.1758 65.136 74.0154L52.391 77.4304C47.4979 78.7415 42.449 75.86 41.1459 70.9966L39.4761 64.7649L28.9789 75.309C28.6247 75.6602 28.4327 76.1229 28.4327 76.6223V97.0651H21.7949V76.6223C21.7949 74.3673 22.6801 72.2344 24.2958 70.6413L37.54 57.507L36.9864 55.4409L18.0234 60.4811L17.9842 60.4859C17.4755 60.5482 17.0102 60.8261 16.7044 61.2386L5.42499 81.1599L0 77.3545L11.2471 57.475L11.2645 57.4507C12.6289 55.5368 14.7506 54.2615 17.0906 53.9574L36.9935 48.7561C38.0137 46.1057 40.255 43.9539 43.217 43.1602L55.962 39.7452C60.8548 38.4342 65.9039 41.3156 67.2071 46.1791L67.3496 46.7109L67.6674 47.9022L90.8222 53.9577C93.1608 54.2701 95.2819 55.5444 96.6465 57.4497L96.6643 57.4745L107.912 77.3544L102.487 81.16L91.2157 61.2386C90.9127 60.8301 90.4473 60.5549 89.9291 60.485L89.8934 60.4802L69.584 55.0821L70.1807 57.3092L83.6253 70.6421L83.6265 70.6432C85.2298 72.2421 86.1253 74.3649 86.1253 76.6223V97.0651H79.4875V76.6223C79.4875 76.1229 79.2955 75.6602 78.9413 75.309ZM65.2562 64.5449C65.6162 65.8882 64.8059 67.2879 63.4401 67.6539L50.6951 71.0689C49.3292 71.4348 47.9276 70.6278 47.5677 69.2845L43.1069 52.6367C42.747 51.2934 43.5573 49.8937 44.9231 49.5277L57.6681 46.1127C59.034 45.7467 60.4356 46.5538 60.7955 47.897L65.2562 64.5449Z" fill="white"/>
<path fill-rule="evenodd" clip-rule="evenodd" d="M102.486 15.9051L107.912 19.7107L96.6642 39.5906L96.6465 39.6154C95.2819 41.5207 93.1608 42.795 90.8222 43.1074L69.75 48.6143V48.9103C69.75 53.9454 65.6187 58.0354 60.5532 58.0354H47.3586C42.2929 58.0354 38.1619 53.9453 38.1619 48.9103V48.6143L17.0906 43.1077C14.7506 42.8036 12.6289 41.5283 11.2645 39.6144L11.2471 39.5901L0 19.7107L5.42499 15.9053L16.7044 35.8265C17.0102 36.239 17.5147 36.5217 18.0234 36.584L38.1702 41.9389V40.1831L24.2961 26.4242C22.6804 24.831 21.7949 22.6978 21.7949 20.4428V0H28.4327V20.4428C28.4327 20.9422 28.6247 21.4049 28.9789 21.7561L38.2041 30.8971C38.6076 26.2295 42.5681 22.5585 47.367 22.5585H60.5616C65.3603 22.5585 69.3206 26.2291 69.7244 30.8964L78.9413 21.7561C79.2955 21.405 79.4875 20.9422 79.4875 20.4428V0H86.1253V20.4428C86.1253 22.7003 85.2298 24.823 83.6264 26.4219L83.6253 26.423L69.75 40.1831V41.9389L89.8934 36.5849C90.4116 36.5151 90.9127 36.235 91.2157 35.8265L102.486 15.9051ZM63.1206 48.9187C63.1206 50.3094 61.9756 51.4517 60.5616 51.4517H47.367C45.953 51.4517 44.808 50.3094 44.808 48.9187V31.6836C44.808 30.2929 45.953 29.1506 47.367 29.1506H60.5616C61.9756 29.1506 63.1206 30.2929 63.1206 31.6836V48.9187Z" fill="#FCCD0C"/>
<path d="M65.1354 74.0154L63.4395 67.6539C64.8054 67.2879 65.6156 65.8882 65.2557 64.5449L60.7949 47.897C60.435 46.5538 59.0334 45.7467 57.6676 46.1127L55.9614 39.7452C60.8543 38.4342 65.9034 41.3156 67.2065 46.1791L67.3492 46.7115L67.7247 47.9206L90.8216 53.9577C93.1603 54.2701 95.2813 55.5444 96.646 57.4497L96.6637 57.4745L107.911 77.3544L102.486 81.16L91.2152 61.2386C90.9122 60.8301 90.4468 60.5549 89.9285 60.485L89.8928 60.4802L69.5834 55.0821L70.1802 57.3092L83.6259 70.6432C85.2293 72.2421 86.1248 74.3649 86.1248 76.6223V97.0651H79.487V76.6223C79.487 76.1229 79.2949 75.6602 78.9408 75.309L71.5238 67.9537C70.5956 70.8167 68.2688 73.1758 65.1354 74.0154Z" fill="white"/>
<path d="M165.288 12.9538C169.258 12.9538 172.736 13.7187 175.723 15.2485C178.71 16.7418 181.023 18.8543 182.662 21.586C184.337 24.2813 185.175 27.4136 185.175 30.9831C185.175 34.6617 184.301 37.9034 182.552 40.7079C180.84 43.5125 178.491 45.625 175.505 47.0455C179.511 48.466 182.68 50.7788 185.011 53.984C187.342 57.1892 188.507 60.9771 188.507 65.3479C188.507 69.063 187.688 72.3228 186.049 75.1274C184.41 77.9319 182.097 80.1173 179.11 81.6835C176.16 83.2496 172.7 84.0327 168.73 84.0327H131.797V12.9538H165.288ZM163.977 22.788H143.107V42.9479H163.977C166.963 42.9479 169.313 42.0191 171.025 40.1616C172.773 38.2676 173.647 35.718 173.647 32.5128C173.647 29.4533 172.773 27.0676 171.025 25.3558C169.313 23.6439 166.963 22.788 163.977 22.788ZM165.015 52.782H143.107V74.2532H166.217C169.531 74.2532 172.154 73.3427 174.084 71.5215C176.014 69.664 176.98 67.1326 176.98 63.9274C176.98 60.4672 175.905 57.7537 173.756 55.7869C171.644 53.7837 168.73 52.782 165.015 52.782ZM193.424 56.4972C193.424 50.7424 194.535 45.7342 196.756 41.4728C198.978 37.1749 202.074 33.8422 206.044 31.4748C210.051 29.1073 214.694 27.9236 219.976 27.9236C225.293 27.9236 229.919 29.1073 233.853 31.4748C237.823 33.8422 240.901 37.1749 243.086 41.4728C245.308 45.7342 246.419 50.7424 246.419 56.4972C246.419 62.2519 245.308 67.2965 243.086 71.6308C240.901 75.9651 237.823 79.3342 233.853 81.7381C229.919 84.1056 225.293 85.2893 219.976 85.2893C214.694 85.2893 210.051 84.1056 206.044 81.7381C202.074 79.3342 198.978 75.9651 196.756 71.6308C194.535 67.2965 193.424 62.2519 193.424 56.4972ZM234.946 56.4972C234.946 50.5967 233.634 46.0256 231.012 42.784C228.389 39.506 224.729 37.8669 220.03 37.8669C215.259 37.8669 211.544 39.506 208.885 42.784C206.226 46.0256 204.897 50.5967 204.897 56.4972C204.897 62.4705 206.226 67.1144 208.885 70.4288C211.544 73.7069 215.259 75.3459 220.03 75.3459C224.729 75.3459 228.389 73.7069 231.012 70.4288C233.634 67.1144 234.946 62.4705 234.946 56.4972ZM247.849 29.3987H278.061V38.7411H247.849V29.3987ZM278.061 74.2532V84.0327H272.598C269.757 84.0327 267.171 83.5046 264.84 82.4483C262.545 81.3921 260.706 79.7348 259.322 77.4766C257.974 75.2184 257.3 72.2864 257.3 68.6805V15.1938H268.5V67.2054C268.5 69.9371 268.992 71.7947 269.975 72.7781C270.995 73.7615 272.325 74.2532 273.964 74.2532H278.061ZM333.757 29.3987V84.0327H322.612V29.3987H333.757ZM326.6 56.4972C326.6 62.2519 325.671 67.2965 323.814 71.6308C321.993 75.9651 319.425 79.3342 316.11 81.7381C312.796 84.1056 308.917 85.2893 304.473 85.2893C299.811 85.2893 295.714 84.1056 292.181 81.7381C288.684 79.3342 285.952 75.9651 283.986 71.6308C282.055 67.2965 281.09 62.2519 281.09 56.4972C281.09 50.7424 282.055 45.7342 283.986 41.4728C285.952 37.1749 288.684 33.8422 292.181 31.4748C295.714 29.1073 299.811 27.9236 304.473 27.9236C308.917 27.9236 312.796 29.1073 316.11 31.4748C319.425 33.8422 321.993 37.1749 323.814 41.4728C325.671 45.7342 326.6 50.7424 326.6 56.4972ZM292.563 56.4972C292.563 62.4705 293.874 67.1144 296.497 70.4288C299.156 73.7069 302.852 75.3459 307.587 75.3459C312.359 75.3459 316.056 73.7069 318.678 70.4288C321.301 67.1144 322.612 62.4705 322.612 56.4972C322.612 50.5967 321.301 46.0256 318.678 42.784C316.056 39.506 312.359 37.8669 307.587 37.8669C302.852 37.8669 299.156 39.506 296.497 42.784C293.874 46.0256 292.563 50.5967 292.563 56.4972ZM378.969 51.8533C378.969 47.1183 377.785 43.6764 375.417 41.5274C373.086 39.3785 369.954 38.304 366.02 38.304C363.507 38.304 361.249 38.8504 359.246 39.943C357.242 41.0357 355.658 42.5473 354.492 44.4777C353.363 46.3716 352.799 48.5752 352.799 51.0884L349.138 50.4328C349.175 45.7343 350.231 41.7095 352.307 38.3587C354.42 35.0078 357.06 32.44 360.229 30.6553C363.398 28.8341 366.639 27.9236 369.954 27.9236C375.854 27.9236 380.699 29.7629 384.487 33.4416C388.275 37.1203 390.169 42.4562 390.169 49.4494V84.0327H378.969V51.8533ZM341.49 29.3987H352.799V84.0327H341.49V29.3987ZM397.041 11.4787H409.826V22.2416H397.041V11.4787ZM397.752 29.3987H409.061V84.0327H397.752V29.3987ZM414.54 29.3987H426.724L440.054 50.8698L453.167 29.3987H465.405L448.796 56.7703L465.405 84.0327H453.221L439.945 62.4523L426.778 84.0327H414.54L431.149 56.6611L414.54 29.3987Z" fill="white"/>
<path d="M516.709 87.0327H475.2V15.9658H480.749V81.8041H516.709V87.0327ZM568.706 32.3987V87.0327H563.263V32.3987H568.706ZM566.891 59.5023C566.891 63.7706 566.322 67.6476 565.184 71.1334C564.117 74.6191 562.552 77.6069 560.489 80.0968C558.497 82.5866 556.079 84.5073 553.233 85.8589C550.387 87.2106 547.222 87.8864 543.736 87.8864C538.899 87.8864 534.63 86.7126 530.931 84.365C527.232 82.0175 524.351 78.7096 522.288 74.4413C520.296 70.173 519.3 65.1933 519.3 59.5023C519.3 55.234 519.869 51.3925 521.007 47.9779C522.217 44.4921 523.889 41.5399 526.023 39.1212C528.157 36.6314 530.718 34.7107 533.706 33.359C536.765 32.0074 540.108 31.3316 543.736 31.3316C548.36 31.3316 552.415 32.5054 555.901 34.8529C559.386 37.2005 562.09 40.4728 564.01 44.67C565.931 48.8671 566.891 53.8112 566.891 59.5023ZM525.062 59.5023C525.062 66.7584 526.734 72.4138 530.078 76.4687C533.421 80.4524 538.116 82.4443 544.163 82.4443C548.218 82.4443 551.668 81.5551 554.513 79.7766C557.359 77.927 559.529 75.2949 561.023 71.8803C562.517 68.4657 563.263 64.3397 563.263 59.5023C563.263 52.3173 561.592 46.733 558.248 42.7493C554.976 38.7655 550.281 36.7737 544.163 36.7737C540.179 36.7737 536.729 37.6629 533.812 39.4413C530.967 41.2198 528.797 43.8163 527.303 47.231C525.809 50.5745 525.062 54.6649 525.062 59.5023ZM577.379 10.5237H582.927V87.0327H577.379V10.5237ZM579.299 59.5023C579.299 55.234 579.833 51.3925 580.9 47.9779C582.038 44.4921 583.603 41.5399 585.595 39.1212C587.658 36.6314 590.077 34.7107 592.851 33.359C595.697 32.0074 598.862 31.3316 602.348 31.3316C607.257 31.3316 611.525 32.5054 615.153 34.8529C618.852 37.2005 621.698 40.4728 623.69 44.67C625.753 48.8671 626.784 53.8112 626.784 59.5023C626.784 65.1933 625.753 70.173 623.69 74.4413C621.698 78.7096 618.852 82.0175 615.153 84.365C611.525 86.7126 607.257 87.8864 602.348 87.8864C597.724 87.8864 593.669 86.7126 590.184 84.365C586.769 82.0175 584.101 78.7096 582.18 74.4413C580.26 70.173 579.299 65.1933 579.299 59.5023ZM621.022 59.5023C621.022 52.3173 619.35 46.733 616.007 42.7493C612.734 38.7655 608.075 36.7737 602.028 36.7737C597.973 36.7737 594.523 37.6629 591.677 39.4413C588.832 41.2198 586.662 43.8163 585.168 47.231C583.674 50.5745 582.927 54.6649 582.927 59.5023C582.927 66.7584 584.599 72.4138 587.943 76.4687C591.286 80.4524 595.981 82.4443 602.028 82.4443C606.083 82.4443 609.498 81.5551 612.272 79.7766C615.117 77.927 617.287 75.2949 618.781 71.8803C620.275 68.4657 621.022 64.3397 621.022 59.5023ZM659.039 62.9169L650.823 61.7431C645.417 61.0317 641.219 59.5378 638.232 57.2614C635.315 54.9139 633.857 51.4637 633.857 46.9108C633.857 42.1446 635.671 38.3743 639.299 35.5999C642.998 32.8255 648.013 31.4383 654.344 31.4383C660.462 31.4383 665.406 33.0033 669.177 36.1334C673.018 39.1924 675.188 43.4251 675.686 48.8316H670.03C669.319 44.7056 667.683 41.6822 665.122 39.7615C662.632 37.7696 659.004 36.7737 654.238 36.7737C649.756 36.7737 646.128 37.6985 643.354 39.5481C640.65 41.3265 639.299 43.7096 639.299 46.6974C639.299 49.6141 640.295 51.7482 642.286 53.0999C644.349 54.4515 647.337 55.3763 651.25 55.8742L659.466 56.9413C665.371 57.6527 669.781 59.3244 672.698 61.9565C675.615 64.5887 677.073 68.2878 677.073 73.0541C677.073 76.0419 676.219 78.674 674.512 80.9504C672.876 83.1557 670.528 84.863 667.469 86.0724C664.41 87.2817 660.854 87.8864 656.799 87.8864C649.898 87.8864 644.385 86.3213 640.259 83.1913C636.204 79.99 633.892 75.7929 633.323 70.5998H639.192C639.903 74.7258 641.717 77.7492 644.634 79.6699C647.551 81.5907 651.641 82.551 656.905 82.551C661.316 82.551 664.837 81.6974 667.469 79.99C670.173 78.2116 671.524 75.8996 671.524 73.0541C671.524 70.1374 670.493 67.861 668.43 66.2248C666.367 64.5175 663.237 63.4149 659.039 62.9169Z" fill="#FCCD0C"/>
</svg>
