<svg width="806" height="121" viewBox="0 0 806 121" fill="none" xmlns="http://www.w3.org/2000/svg">
<path d="M245.233 85.8604C240.479 85.8604 236.182 84.7633 232.434 82.4777C228.685 80.2834 225.668 77.2664 223.474 73.4265C221.189 69.6781 220.091 65.3811 220 60.627V17.9313C220 16.7428 220.366 15.7371 221.097 15.0057C221.737 14.3657 222.743 14 223.931 14C225.12 14 226.034 14.3657 226.765 15.0057C227.405 15.7371 227.771 16.7428 227.771 17.9313V44.079C229.783 41.3362 232.434 39.142 235.634 37.4049C238.834 35.7593 242.491 34.9364 246.422 34.9364C251.085 34.9364 255.199 36.0335 258.856 38.2277C262.513 40.5134 265.438 43.5304 267.541 47.3703C269.553 51.2102 270.65 55.5072 270.65 60.3527C270.65 65.1982 269.553 69.5867 267.358 73.4265C265.073 77.2664 262.056 80.2834 258.307 82.4777C254.467 84.7633 250.079 85.8604 245.233 85.8604ZM245.233 78.9121C248.616 78.9121 251.725 78.0892 254.467 76.4436C257.119 74.7979 259.313 72.6037 260.867 69.7695C262.421 67.0268 263.153 63.9183 263.153 60.3527C263.153 56.8785 262.421 53.7701 260.867 50.9359C259.313 48.1017 257.119 45.9075 254.467 44.2618C251.725 42.7076 248.616 41.8848 245.233 41.8848C241.942 41.8848 238.925 42.7076 236.274 44.2618C233.531 45.9075 231.428 48.1017 229.874 50.9359C228.32 53.7701 227.588 56.8785 227.588 60.3527C227.588 63.9183 228.32 67.0268 229.874 69.7695C231.428 72.6037 233.531 74.7979 236.274 76.4436C238.925 78.0892 241.942 78.9121 245.233 78.9121ZM306.26 85.9518C301.963 85.9518 298.123 85.0376 294.74 83.2091C291.358 81.472 288.615 78.8206 286.695 75.3465C284.775 71.8723 283.769 67.5753 283.769 62.5469V39.2334C283.769 38.1363 284.135 37.2221 284.866 36.4907C285.598 35.7593 286.512 35.3936 287.609 35.3936C288.706 35.3936 289.62 35.7593 290.352 36.4907C291.083 37.2221 291.449 38.1363 291.449 39.2334V62.5469C291.449 66.2954 292.18 69.3124 293.552 71.598C294.923 73.9751 296.843 75.7122 299.22 76.9007C301.597 78.0892 304.249 78.7292 307.266 78.7292C310.1 78.7292 312.751 78.1807 315.037 76.9921C317.322 75.895 319.151 74.3408 320.522 72.4209C321.894 70.5009 322.534 68.3067 322.534 65.8382H327.745C327.653 69.6781 326.648 73.1523 324.728 76.0779C322.808 79.0949 320.248 81.5634 317.048 83.3005C313.848 85.0376 310.191 85.9518 306.26 85.9518ZM326.374 85.4033C325.185 85.4033 324.271 85.0376 323.631 84.3062C322.899 83.6662 322.534 82.6605 322.534 81.472V39.2334C322.534 38.0449 322.899 37.1306 323.631 36.3992C324.271 35.7593 325.185 35.3936 326.374 35.3936C327.562 35.3936 328.476 35.7593 329.208 36.3992C329.939 37.1306 330.305 38.0449 330.305 39.2334V81.472C330.305 82.6605 329.939 83.6662 329.208 84.3062C328.476 85.0376 327.562 85.4033 326.374 85.4033ZM371.801 85.8604C367.046 85.8604 362.749 84.7633 359.001 82.4777C355.253 80.2834 352.235 77.2664 350.041 73.4265C347.756 69.6781 346.659 65.3811 346.567 60.627V17.9313C346.567 16.7428 346.933 15.7371 347.664 15.0057C348.304 14.3657 349.31 14 350.498 14C351.687 14 352.601 14.3657 353.333 15.0057C353.973 15.7371 354.338 16.7428 354.338 17.9313V44.079C356.35 41.3362 359.001 39.142 362.201 37.4049C365.401 35.7593 369.058 34.9364 372.989 34.9364C377.652 34.9364 381.766 36.0335 385.423 38.2277C389.08 40.5134 392.006 43.5304 394.108 47.3703C396.12 51.2102 397.217 55.5072 397.217 60.3527C397.217 65.1982 396.12 69.5867 393.925 73.4265C391.64 77.2664 388.623 80.2834 384.874 82.4777C381.034 84.7633 376.646 85.8604 371.801 85.8604ZM371.801 78.9121C375.183 78.9121 378.292 78.0892 381.034 76.4436C383.686 74.7979 385.88 72.6037 387.434 69.7695C388.988 67.0268 389.72 63.9183 389.72 60.3527C389.72 56.8785 388.988 53.7701 387.434 50.9359C385.88 48.1017 383.686 45.9075 381.034 44.2618C378.292 42.7076 375.183 41.8848 371.801 41.8848C368.509 41.8848 365.492 42.7076 362.841 44.2618C360.098 45.9075 357.995 48.1017 356.441 50.9359C354.887 53.7701 354.155 56.8785 354.155 60.3527C354.155 63.9183 354.887 67.0268 356.441 69.7695C357.995 72.6037 360.098 74.7979 362.841 76.4436C365.492 78.0892 368.509 78.9121 371.801 78.9121ZM436.427 85.8604C431.673 85.8604 427.376 84.7633 423.627 82.4777C419.879 80.2834 416.862 77.2664 414.668 73.4265C412.382 69.6781 411.285 65.3811 411.193 60.627V17.9313C411.193 16.7428 411.559 15.7371 412.291 15.0057C412.931 14.3657 413.936 14 415.125 14C416.313 14 417.228 14.3657 417.959 15.0057C418.599 15.7371 418.965 16.7428 418.965 17.9313V44.079C420.976 41.3362 423.627 39.142 426.827 37.4049C430.027 35.7593 433.684 34.9364 437.615 34.9364C442.278 34.9364 446.392 36.0335 450.049 38.2277C453.706 40.5134 456.632 43.5304 458.735 47.3703C460.746 51.2102 461.843 55.5072 461.843 60.3527C461.843 65.1982 460.746 69.5867 458.552 73.4265C456.266 77.2664 453.249 80.2834 449.501 82.4777C445.661 84.7633 441.272 85.8604 436.427 85.8604ZM436.427 78.9121C439.81 78.9121 442.918 78.0892 445.661 76.4436C448.312 74.7979 450.506 72.6037 452.061 69.7695C453.615 67.0268 454.346 63.9183 454.346 60.3527C454.346 56.8785 453.615 53.7701 452.061 50.9359C450.506 48.1017 448.312 45.9075 445.661 44.2618C442.918 42.7076 439.81 41.8848 436.427 41.8848C433.136 41.8848 430.119 42.7076 427.467 44.2618C424.724 45.9075 422.622 48.1017 421.067 50.9359C419.513 53.7701 418.782 56.8785 418.782 60.3527C418.782 63.9183 419.513 67.0268 421.067 69.7695C422.622 72.6037 424.724 74.7979 427.467 76.4436C430.119 78.0892 433.136 78.9121 436.427 78.9121ZM486.974 85.4033C484.414 85.4033 482.128 84.6719 480.208 83.3005C478.288 81.9291 476.734 80.1006 475.637 77.6321C474.54 75.1636 473.991 72.4209 473.991 69.221V17.8399C473.991 16.6513 474.357 15.7371 475.088 15.0057C475.728 14.3657 476.643 14 477.831 14C478.928 14 479.843 14.3657 480.574 15.0057C481.214 15.7371 481.58 16.6513 481.58 17.8399V69.221C481.58 71.6895 482.128 73.7922 483.134 75.3465C484.139 76.9921 485.419 77.815 486.974 77.815H489.259C490.265 77.815 490.996 78.1807 491.636 78.8206C492.276 79.552 492.551 80.4663 492.551 81.5634C492.551 82.7519 492.094 83.6662 491.271 84.3062C490.356 85.0376 489.168 85.4033 487.797 85.4033H486.974ZM521.795 85.8604C516.767 85.8604 512.379 84.7633 508.539 82.5691C504.699 80.4663 501.682 77.4493 499.488 73.6094C497.293 69.7695 496.196 65.3811 496.196 60.4441C496.196 55.4157 497.202 51.0273 499.305 47.1874C501.408 43.439 504.242 40.422 507.899 38.2277C511.464 36.0335 515.67 34.9364 520.424 34.9364C525.087 34.9364 529.109 35.9421 532.584 38.0449C535.966 40.2391 538.618 43.0733 540.538 46.8217C542.366 50.5702 543.28 54.7757 543.28 59.5299C543.28 60.5355 542.915 61.3584 542.275 61.9984C541.635 62.6383 540.72 63.004 539.715 63.004H501.499V56.6957H540.172L536.241 59.4384C536.332 56.0557 535.692 53.0387 534.412 50.3873C533.132 47.736 531.304 45.6332 528.927 44.079C526.549 42.5247 523.715 41.7933 520.424 41.7933C516.95 41.7933 513.933 42.6162 511.373 44.1704C508.722 45.7246 506.802 48.0103 505.43 50.753C504.059 53.6786 503.327 56.8785 503.327 60.4441C503.327 64.0097 504.15 67.2096 505.704 70.0438C507.259 72.878 509.453 75.0722 512.287 76.6264C515.03 78.1807 518.23 79.0035 521.795 79.0035C523.898 79.0035 526.001 78.6378 528.195 77.9064C530.298 77.175 532.035 76.2607 533.315 75.1636C534.046 74.6151 534.869 74.3408 535.875 74.2494C536.789 74.2494 537.521 74.5236 538.161 75.0722C539.075 75.895 539.532 76.7179 539.623 77.6321C539.623 78.5464 539.166 79.3692 538.343 80.0092C536.332 81.7462 533.772 83.1176 530.664 84.2147C527.555 85.3118 524.63 85.8604 521.795 85.8604ZM622.032 85.4033C620.843 85.4033 619.929 85.0376 619.198 84.3062C618.466 83.6662 618.101 82.7519 618.101 81.5634V55.3243C618.101 51.1187 617.004 47.8274 614.901 45.5418C612.798 43.2561 609.964 42.0676 606.581 42.0676C603.015 42.0676 600.09 43.2561 597.804 45.7246C595.519 48.1931 594.33 51.393 594.33 55.3243H587.656C587.747 51.2102 588.57 47.6446 590.307 44.5361C592.044 41.5191 594.421 39.142 597.438 37.4049C600.456 35.6678 603.838 34.845 607.678 34.845C611.244 34.845 614.352 35.6678 617.095 37.3135C619.838 38.9591 622.032 41.3362 623.586 44.3532C625.14 47.4617 625.872 51.1187 625.872 55.3243V81.5634C625.872 82.7519 625.506 83.6662 624.775 84.3062C624.043 85.0376 623.129 85.4033 622.032 85.4033ZM558.948 85.4033C557.76 85.4033 556.754 85.0376 556.114 84.3062C555.383 83.6662 555.017 82.7519 555.017 81.5634V39.3248C555.017 38.1363 555.383 37.2221 556.114 36.4907C556.754 35.7593 557.76 35.3936 558.948 35.3936C560.137 35.3936 561.051 35.7593 561.783 36.4907C562.423 37.2221 562.788 38.1363 562.788 39.3248V81.5634C562.788 82.7519 562.423 83.6662 561.783 84.3062C561.051 85.0376 560.137 85.4033 558.948 85.4033ZM590.49 85.4033C589.393 85.4033 588.479 85.0376 587.747 84.3062C587.016 83.6662 586.65 82.7519 586.65 81.5634V55.3243C586.65 51.1187 585.553 47.8274 583.45 45.5418C581.256 43.2561 578.513 42.0676 575.131 42.0676C571.565 42.0676 568.548 43.2561 566.262 45.6332C563.977 48.0103 562.788 51.1187 562.788 54.9586H557.486C557.577 51.0273 558.491 47.4617 560.045 44.4447C561.6 41.4276 563.794 39.142 566.628 37.4049C569.462 35.6678 572.662 34.845 576.228 34.845C579.793 34.845 582.902 35.6678 585.645 37.3135C588.387 38.9591 590.49 41.3362 592.044 44.3532C593.599 47.4617 594.33 51.1187 594.33 55.3243V81.5634C594.33 82.7519 593.964 83.6662 593.324 84.3062C592.593 85.0376 591.679 85.4033 590.49 85.4033ZM663.253 85.8604C658.591 85.8604 654.477 84.7633 650.82 82.4777C647.163 80.2834 644.237 77.2664 642.134 73.4265C640.031 69.5867 638.934 65.2897 638.934 60.4441C638.934 55.5986 640.031 51.2102 642.317 47.3703C644.511 43.5304 647.528 40.5134 651.368 38.2277C655.208 36.0335 659.505 34.9364 664.35 34.9364C669.105 34.9364 673.402 36.0335 677.241 38.2277C680.99 40.5134 684.007 43.5304 686.293 47.3703C688.487 51.2102 689.584 55.5986 689.675 60.4441L686.567 61.9984C686.567 66.4782 685.561 70.5923 683.55 74.1579C681.447 77.7235 678.704 80.5577 675.23 82.6605C671.665 84.7633 667.733 85.8604 663.253 85.8604ZM664.35 78.9121C667.733 78.9121 670.75 78.0892 673.493 76.4436C676.053 74.8893 678.247 72.6951 679.801 69.8609C681.356 67.0268 682.087 63.9183 682.087 60.4441C682.087 56.8785 681.356 53.7701 679.801 50.9359C678.247 48.1931 676.053 45.9989 673.493 44.3532C670.75 42.7076 667.733 41.8848 664.35 41.8848C660.968 41.8848 657.951 42.7076 655.299 44.3532C652.557 45.9989 650.362 48.1931 648.808 50.9359C647.254 53.7701 646.431 56.8785 646.431 60.4441C646.431 63.9183 647.254 67.0268 648.808 69.8609C650.362 72.6951 652.557 74.8893 655.299 76.4436C657.951 78.0892 660.968 78.9121 664.35 78.9121ZM685.744 85.4033C684.647 85.4033 683.733 85.0376 683.001 84.3062C682.178 83.6662 681.813 82.7519 681.813 81.5634V66.4782L683.55 58.5242L689.675 60.4441V81.5634C689.675 82.7519 689.31 83.6662 688.578 84.3062C687.847 85.0376 686.933 85.4033 685.744 85.4033ZM707.4 106.797C706.212 106.797 705.206 106.431 704.566 105.791C703.835 105.06 703.469 104.054 703.469 102.866V60.1698C703.561 55.4157 704.658 51.1187 706.943 47.2789C709.138 43.5304 712.155 40.5134 715.903 38.2277C719.651 36.0335 723.948 34.9364 728.703 34.9364C733.548 34.9364 737.937 36.0335 741.776 38.2277C745.525 40.5134 748.542 43.5304 750.828 47.3703C753.022 51.2102 754.119 55.5986 754.119 60.4441C754.119 65.2897 753.022 69.5867 751.01 73.4265C748.908 77.2664 745.982 80.2834 742.325 82.4777C738.668 84.7633 734.554 85.8604 729.891 85.8604C725.96 85.8604 722.303 85.0376 719.103 83.3005C715.903 81.6548 713.252 79.4606 711.24 76.7179V102.866C711.24 104.054 710.875 105.06 710.143 105.791C709.412 106.431 708.498 106.797 707.4 106.797ZM728.703 78.9121C732.085 78.9121 735.194 78.0892 737.937 76.4436C740.588 74.8893 742.782 72.6951 744.336 69.8609C745.891 67.0268 746.622 63.9183 746.622 60.4441C746.622 56.8785 745.891 53.7701 744.336 50.9359C742.782 48.1931 740.588 45.9989 737.937 44.3532C735.194 42.7076 732.085 41.8848 728.703 41.8848C725.411 41.8848 722.394 42.7076 719.743 44.3532C717 45.9989 714.897 48.1931 713.343 50.9359C711.789 53.7701 711.057 56.8785 711.057 60.4441C711.057 63.9183 711.789 67.0268 713.343 69.8609C714.897 72.6951 717 74.8893 719.651 76.4436C722.303 78.0892 725.32 78.9121 728.703 78.9121ZM785.741 85.8604C781.992 85.8604 778.335 85.2204 774.77 83.9405C771.204 82.7519 768.278 80.9234 766.176 78.6378C765.444 77.815 765.17 76.9007 765.261 75.895C765.353 74.8893 765.901 73.9751 766.724 73.3351C767.73 72.6037 768.644 72.3294 769.741 72.4209C770.655 72.5123 771.57 72.9694 772.21 73.7008C773.581 75.255 775.41 76.535 777.787 77.4493C780.164 78.4549 782.815 78.9121 785.649 78.9121C789.855 78.9121 792.963 78.1807 794.975 76.7179C796.895 75.3465 797.9 73.518 797.992 71.4152C797.992 69.3124 796.986 67.5753 795.066 66.2039C793.055 64.8325 789.672 63.7354 784.918 62.9126C778.792 61.9069 774.312 60.1698 771.478 57.7014C768.553 55.2329 767.181 52.3073 767.181 48.9245C767.181 45.8161 768.004 43.2561 769.741 41.1534C771.478 39.0506 773.672 37.4963 776.507 36.4907C779.249 35.485 782.266 34.9364 785.466 34.9364C789.58 34.9364 793.055 35.5764 796.072 36.9478C799.089 38.3192 801.466 40.2391 803.294 42.5247C803.934 43.3476 804.3 44.2618 804.209 45.1761C804.117 46.1818 803.569 46.9132 802.654 47.4617C801.831 48.0103 800.917 48.1931 799.912 48.0103C798.814 47.8274 797.9 47.3703 797.169 46.5475C795.615 44.9018 793.877 43.7133 791.958 42.8904C790.038 42.159 787.752 41.7933 785.284 41.7933C782.084 41.7933 779.524 42.4333 777.604 43.6218C775.684 44.9018 774.678 46.5475 774.678 48.4674C774.678 49.8388 775.044 50.9359 775.775 51.9416C776.415 52.9472 777.695 53.7701 779.524 54.5015C781.261 55.3243 783.821 55.9643 787.203 56.6043C791.775 57.4271 795.432 58.5242 798.083 59.8956C800.734 61.3584 802.563 63.004 803.751 64.924C804.849 66.8439 805.397 68.9467 805.397 71.2323C805.397 74.0665 804.574 76.6264 803.02 78.7292C801.374 80.9234 799.089 82.6605 796.163 83.9405C793.237 85.2204 789.763 85.8604 785.741 85.8604Z" fill="white"/>
<path fill-rule="evenodd" clip-rule="evenodd" d="M14.2273 106.644C14.2273 106.644 7.83077 84.5865 17.9833 74.434C25.8368 66.5805 38.5867 66.5828 46.4378 74.434C54.289 82.2851 54.2913 95.035 46.4378 102.888C36.2853 113.041 14.2273 106.644 14.2273 106.644Z" fill="url(#paint0_linear_23_13)"/>
<path fill-rule="evenodd" clip-rule="evenodd" d="M45.7267 42.1413C38.5521 29.7148 50.4358 10.061 50.4358 10.061C50.4358 10.061 73.4011 9.59444 80.5757 22.0209L113.295 78.6913C118.851 88.3146 115.547 100.626 105.93 106.178C96.3124 111.731 84.0019 108.435 78.4458 98.8117L45.7267 42.1413Z" fill="url(#paint1_linear_23_13)"/>
<path fill-rule="evenodd" clip-rule="evenodd" d="M109.371 42.1413C102.196 29.7148 114.08 10.061 114.08 10.061C114.08 10.061 137.045 9.59444 144.22 22.0209L176.939 78.6913C182.495 88.3146 179.191 100.626 169.574 106.178C159.956 111.731 147.646 108.435 142.09 98.8117L109.371 42.1413Z" fill="url(#paint2_linear_23_13)"/>
<defs>
<linearGradient id="paint0_linear_23_13" x1="46.4378" y1="74.434" x2="14.2303" y2="106.641" gradientUnits="userSpaceOnUse">
<stop stop-color="#6F17BA"/>
<stop offset="1" stop-color="#B038FA"/>
</linearGradient>
<linearGradient id="paint1_linear_23_13" x1="105.93" y1="106.178" x2="50.4371" y2="10.0633" gradientUnits="userSpaceOnUse">
<stop stop-color="#C41BAF"/>
<stop offset="1" stop-color="#F52586"/>
</linearGradient>
<linearGradient id="paint2_linear_23_13" x1="169.574" y1="106.178" x2="114.081" y2="10.0633" gradientUnits="userSpaceOnUse">
<stop stop-color="#3054B6"/>
<stop offset="1" stop-color="#00A4FC"/>
</linearGradient>
</defs>
</svg>
