<svg width="588" height="110" viewBox="0 0 588 110" fill="none" xmlns="http://www.w3.org/2000/svg">
<path d="M62.3084 13.4596C56.8008 13.4608 51.519 15.6492 47.6245 19.5437C43.73 23.4382 41.5416 28.7199 41.5404 34.2276V48.0788H55.3872V27.3064H69.234V75.7724C69.1309 84.8856 65.4384 93.5905 58.9576 99.9984C52.4769 106.406 43.7308 110 34.617 110C25.5033 110 16.7571 106.406 10.2764 99.9984C3.79564 93.5905 0.103105 84.8856 0 75.7724L0 34.2276C0.000898687 26.2486 2.75758 18.5148 7.80381 12.3341C12.85 6.15353 19.8761 1.90547 27.6936 0.308441V14.6471C23.6446 16.079 20.1389 18.7307 17.6592 22.2373C15.1794 25.7438 13.8475 29.9328 13.8468 34.2276V75.7724C13.9265 81.2285 16.1498 86.4341 20.0363 90.2642C23.9228 94.0944 29.1604 96.2415 34.617 96.2415C40.0737 96.2415 45.3112 94.0944 49.1977 90.2642C53.0842 86.4341 55.3075 81.2285 55.3872 75.7724V61.9212H41.5404V82.6936H27.6936V34.2276C27.7967 25.1144 31.4893 16.4095 37.97 10.0017C44.4507 3.59382 53.1969 0 62.3106 0C71.4244 0 80.1705 3.59382 86.6513 10.0017C93.132 16.4095 96.8245 25.1144 96.9276 34.2276V75.7724C96.9267 83.7514 94.1701 91.4852 89.1238 97.6659C84.0776 103.846 77.0516 108.095 69.234 109.692V95.3529C73.2831 93.921 76.7887 91.2693 79.2685 87.7627C81.7482 84.2562 83.0801 80.0672 83.0808 75.7724V34.2276C83.0797 28.7192 80.8906 23.4367 76.9952 19.5421C73.0997 15.6475 67.8168 13.4596 62.3084 13.4596Z" fill="#007DFF"/>
<path d="M174.172 92.9166H189.013V16H174.172V47.7417H142.538V16H127.697V92.9166H142.538V61.3917H174.172V92.9166Z" fill="white"/>
<path d="M198.435 92.9166H212.952V36.5833H198.435V92.9166Z" fill="white"/>
<path d="M222.412 92.9166H236.929V68.325C236.929 57.0583 243.754 49.475 254.696 49.475C255.996 49.475 257.079 49.5833 258.379 49.8V35.9333C257.079 35.6083 255.887 35.5 254.587 35.5C244.404 35.5 238.879 42.5417 236.929 51.2083V36.5833H222.412V92.9166Z" fill="white"/>
<path d="M290.072 94C300.039 94 308.164 89.8833 312.822 84.0333L306.214 76.9916C302.097 80.5667 297.222 82.0833 291.697 82.0833C283.247 82.0833 276.531 78.075 274.472 70.3833H316.614C319.756 45.575 303.506 35.5 289.206 35.5C274.797 35.5 260.714 45.7917 260.714 64.75C260.714 83.4916 274.581 94 290.072 94ZM274.256 59.7667C276.097 51.6417 282.597 47.7417 289.314 47.7417C296.139 47.7417 302.856 51.75 303.722 59.7667H274.256Z" fill="white"/>
<path d="M350.662 94C360.629 94 369.512 89.2333 374.929 80.1333L364.312 73.3083C361.387 77.75 356.62 80.8916 350.77 80.8916C342.645 80.8916 335.279 74.825 335.279 64.75C335.279 54.675 342.645 48.6083 350.77 48.6083C356.62 48.6083 361.387 51.75 364.312 56.1917L374.929 49.3667C369.512 40.1583 360.629 35.5 350.662 35.5C335.82 35.5 320.979 45.6833 320.979 64.75C320.979 83.8166 335.82 94 350.662 94Z" fill="white"/>
<path d="M381.624 92.9166H396.141V62.15C396.141 53.9167 400.691 48.5 408.166 48.5C415.749 48.5 420.191 53.9167 420.191 62.15V92.9166H434.707V59.7667C434.707 42.65 424.957 35.5 413.366 35.5C404.916 35.5 399.282 39.2917 396.141 44.275V16H381.624V92.9166Z" fill="white"/>
<path d="M468.485 94C478.56 94 485.06 88.475 486.469 85.3333H486.794V92.9166H501.31V36.5833H486.794V44.1667H486.469C485.06 41.025 478.56 35.5 468.485 35.5C455.377 35.5 441.402 45.25 441.402 64.75C441.402 84.25 455.377 94 468.485 94ZM455.702 64.75C455.702 54.2417 463.285 48.5 471.41 48.5C479.535 48.5 487.119 54.1333 487.119 64.75C487.119 75.3666 479.535 81 471.41 81C463.285 81 455.702 75.2583 455.702 64.75Z" fill="white"/>
<path d="M510.723 92.9166H525.239V36.5833H510.723V92.9166Z" fill="white"/>
<path d="M534.7 92.9166H549.217V62.15C549.217 53.9167 553.767 48.5 561.242 48.5C568.825 48.5 573.267 53.9167 573.267 62.15V92.9166H587.783V59.7667C587.783 42.65 578.033 35.5 566.442 35.5C557.992 35.5 552.358 39.2917 549.217 44.275V36.5833H534.7V92.9166Z" fill="white"/>
<circle cx="206" cy="20" r="8" fill="white"/>
<circle cx="518" cy="20" r="8" fill="white"/>
</svg>
